<?xml version="1.0" encoding="utf-8"?>
<!-- Generator: Adobe Illustrator 26.5.0, SVG Export Plug-In . SVG Version: 6.00 Build 0)  -->
<svg version="1.1" id="Layer_1" xmlns="http://www.w3.org/2000/svg" xmlns:xlink="http://www.w3.org/1999/xlink" x="0px" y="0px"
	 viewBox="0 0 1333.6 560.4" style="enable-background:new 0 0 1333.6 560.4;" xml:space="preserve">
<style type="text/css">
	.st0{fill:#FDCFFF;}
	.st1{fill:#FCA1FF;}
	.st2{fill:#FFFFFF;}
	.st3{fill:#A294FE;}
	.st4{fill:#7767E0;}
	.st5{fill:#2E2180;}
	.st6{fill:#F7C1CE;}
	.st7{fill:#3C2E8F;}
	.st8{fill:#FFD182;}
	.st9{fill:#C4626E;}
	.st10{fill:#45359E;}
	.st11{fill:#9789F5;}
	.st12{fill:#F0BF6C;}
	.st13{fill:#E3C0C1;}
	.st14{fill:#FB78FF;}
	.st15{fill:#8370FE;}
	.st16{fill:#1F1C80;}
	.st17{fill:#E3BABB;}
	.st18{fill:#F9CBCB;}
	.st19{fill:#37288F;}
	.st20{fill:#182F57;}
	.st21{fill:#F0B4B4;}
	.st22{fill:#B194FF;}
	.st23{fill:#9C7FEB;}
	.st24{fill:#8B60FF;}
	.st25{fill:#7D52F0;}
	.st26{fill:#EBB457;}
	.st27{fill:#F1CCCD;}
	.st28{fill:#2A1C80;}
	.st29{fill:#D8DAEB;}
	.st30{fill:#D4C4FF;}
	.st31{fill:#CFD2EB;}
	.st32{fill:#E3D9FF;}
	.st33{fill:#7549EB;}
	.st34{fill:#CFC2F5;}
	.st35{fill:#E6E7F5;}
	.st36{fill:#6431EB;}
	.st37{fill:#EAE8FF;}
	.st38{fill:#263182;}
</style>
<path class="st0" d="M1160.3,398.5c0.8-2.5,4.1-3.6,6.6-2.7c2.5,0.8,4.3,3,5.7,5.3c2.2,3.7,3.4,7.5,4.5,11.6
	c0.6-3.9,1.4-7.8,2.4-11.7c0.6-2.6,1.3-5.1,2-7.6c-5.7-1.9-10.7-5.5-14.4-10.2c-1.4-1.8-2.6-4.1-1.9-6.2c0.8-2.5,4.1-3.6,6.6-2.7
	c2.5,0.8,4.3,3,5.7,5.3c2.3,3.8,3.5,7.8,4.6,12c2.3-7.8,5.1-15.4,8.6-22.7c-5.2-2.7-9.6-7-12.4-12.2c-1.1-2-1.9-4.4-0.9-6.4
	c1.2-2.3,4.6-2.9,6.9-1.7c2.3,1.2,3.8,3.6,4.8,6.1c1.6,4,2.2,7.9,2.6,12.1c3.8-7.6,8.4-15.2,14.8-21c0.1-0.1,0.3-0.2,0.4-0.4
	c-4.8-3.5-8.6-8.4-10.6-14c-0.8-2.1-1.3-4.7,0-6.5c1.5-2.2,4.9-2.2,7.1-0.7c2.1,1.5,3.2,4.2,3.9,6.7c1.1,4.5,1,8.9,0.8,13.4
	c7.5-6.4,16.3-11.5,23.5-18.2c-4.9-3.5-8.8-8.5-10.9-14.1c-0.8-2.1-1.3-4.7,0-6.5c1.5-2.2,4.9-2.2,7.1-0.7c2.1,1.5,3.2,4.2,3.9,6.7
	c1.1,4.6,1,9.1,0.8,13.8c1.8-1.7,3.5-3.5,5-5.5c3.1-4,5.4-8.6,6.9-13.5c-5.8-2-11-5.9-14.6-11c-1.3-1.8-2.4-4.2-1.6-6.3
	c0.9-2.5,4.2-3.4,6.7-2.5s4.2,3.2,5.5,5.5c2.3,4.3,3.3,8.6,4.3,13.3c2.2-8,2.3-16.6,0.6-24.5c-5-2.5-9.3-6.4-12.3-11.2
	c-1.2-1.9-2.2-4.3-1.2-6.4c1.1-2.4,4.4-3.1,6.8-2c2.4,1.1,4,3.4,5.1,5.8c1.8,3.8,2.6,7.7,3.2,11.7c0.1,0.1,0.2,0.3,0.2,0.4
	c1.6,6.7,1.8,13.7,0.8,20.4c-0.2,1.5-0.5,3-0.8,4.5c3.1-4.5,7.5-8.1,12.4-10.3c2.1-0.9,4.6-1.6,6.5-0.4c2.2,1.4,2.5,4.8,1.1,7
	c-1.4,2.2-3.9,3.5-6.5,4.3c-4.7,1.5-9.3,1.6-14.2,1.7c-0.8,3.1-1.9,6.1-3.5,8.9c-2.3,4.2-5.3,7.9-8.8,11.1
	c4.9-2.7,10.6-4.1,16.2-3.8c2.3,0.1,4.8,0.7,6,2.6c1.4,2.3,0,5.4-2.2,6.8s-5.1,1.3-7.7,0.9c-5-0.9-9.2-2.9-13.7-5.2
	c-5.8,5.2-12.5,9.6-18.6,14.2c-1.9,1.5-3.8,3-5.6,4.6c5.2-3.2,11.4-4.8,17.5-4.5c2.3,0.1,4.8,0.7,6,2.6c1.4,2.3,0.1,5.4-2.2,6.8
	c-2.3,1.4-5.1,1.3-7.7,0.9c-5.1-0.9-9.4-3-14-5.3c-1.9,1.7-3.7,3.6-5.3,5.6c-2.9,3.7-5.4,7.8-7.7,12c-0.6,1.1-1.2,2.2-1.7,3.4
	c4.4-3.4,9.7-5.5,15.3-6.1c2.2-0.2,4.8-0.1,6.3,1.7c1.7,2,0.9,5.3-1.1,7c-2,1.7-4.8,2.1-7.5,2c-4.9-0.1-9.2-1.4-13.8-2.8
	c-3.4,7.1-6.1,14.6-8.4,22.2c3.6-4.5,8.5-8,14-9.8c2.1-0.7,4.7-1.1,6.5,0.2c2.1,1.6,2,5,0.4,7.1c-1.6,2.1-4.2,3.1-6.8,3.6
	c-4.9,1-9.5,0.7-14.5,0.3c-0.3,1-0.6,2-0.8,3c-1.5,5.6-2.7,11.2-3.6,16.9c3.6-4.4,8.4-7.7,13.7-9.5c2.1-0.7,4.7-1.1,6.5,0.2
	c2.1,1.6,2,5,0.4,7.1c-1.6,2.1-4.2,3.1-6.8,3.6c-4.8,1-9.3,0.7-14.1,0.3c-1,6.5-1.5,13.1-1.5,19.6c0,1.4-2.1,1.3-2.1-0.1
	c0-6.6,0.6-13.2,1.6-19.8c-5.7-1.9-10.8-5.5-14.4-10.3C1160.9,402.9,1159.7,400.6,1160.3,398.5z M540,417.6
	c-1.2-2.4,0.3-5.4,2.7-6.6c2.4-1.2,5.2-0.9,7.8-0.3c4.2,1.1,7.7,2.9,11.3,5c-2.3-3.2-4.5-6.6-6.6-9.9c-1.4-2.2-2.7-4.5-4-6.8
	c-5.3,2.7-11.5,3.7-17.4,3c-2.2-0.3-4.7-1-5.7-3.1c-1.2-2.4,0.4-5.4,2.7-6.6c2.4-1.2,5.2-0.9,7.7-0.3c4.3,1.1,7.9,3,11.7,5.2
	c-3.9-7.1-7.2-14.5-9.9-22.1c-5.6,1.7-11.7,1.8-17.4,0.1c-2.2-0.6-4.5-1.8-5.2-3.9c-0.8-2.5,1.2-5.3,3.7-6.1
	c2.5-0.8,5.3-0.1,7.7,0.9c3.9,1.7,7.1,4.1,10.4,6.7c-2.7-8.1-4.8-16.7-4.4-25.3c0-0.2,0-0.4,0-0.5c-5.9,1-12,0.1-17.4-2.4
	c-2.1-0.9-4.2-2.4-4.6-4.6c-0.4-2.6,2-5,4.6-5.5c2.6-0.4,5.2,0.6,7.5,2c4,2.4,7,5.6,10,9c0.8-9.9,3.4-19.6,3.8-29.5
	c-5.9,1-12.2,0.2-17.7-2.3c-2.1-0.9-4.2-2.4-4.6-4.6c-0.4-2.6,2-5,4.6-5.5c2.6-0.4,5.2,0.6,7.5,2c4.1,2.5,7.1,5.7,10.3,9.2
	c0.1-2.5,0-4.9-0.3-7.4c-0.6-5-2.2-9.9-4.7-14.4c-5.6,2.7-12,3.6-18.1,2.5c-2.2-0.4-4.7-1.2-5.6-3.3c-1.1-2.4,0.6-5.4,3-6.5
	c2.4-1.1,5.2-0.7,7.7,0c4.6,1.4,8.5,3.8,12.5,6.4c-4.1-7.2-10.1-13.4-16.9-17.8c-5.3,1.8-11.1,2.1-16.6,0.8
	c-2.2-0.5-4.6-1.5-5.4-3.6c-0.9-2.5,0.9-5.3,3.4-6.3s5.3-0.4,7.7,0.5c3.9,1.5,7.2,3.6,10.6,6c0.2,0,0.3,0.1,0.5,0.2
	c5.8,3.6,10.9,8.4,15,13.9c0.9,1.2,1.8,2.5,2.6,3.8c-1-5.4-0.5-11,1.5-16.1c0.8-2.1,2.1-4.3,4.3-4.9c2.6-0.6,5.2,1.6,5.8,4.2
	c0.6,2.6-0.3,5.3-1.5,7.6c-2.3,4.4-5.4,7.7-8.8,11.2c1.6,2.8,2.9,5.7,3.8,8.7c1.4,4.6,1.8,9.3,1.7,14.1c1.5-5.4,4.6-10.4,8.8-14.1
	c1.7-1.5,3.9-2.9,6.1-2.4c2.6,0.6,3.9,3.8,3.2,6.4s-2.7,4.5-4.8,6c-4.1,2.9-8.6,4.4-13.3,6c-0.4,7.8-2.1,15.6-3.1,23.2
	c-0.3,2.4-0.6,4.8-0.7,7.2c1.4-6,4.6-11.5,9.2-15.5c1.7-1.5,3.9-2.9,6.1-2.4c2.6,0.6,3.9,3.8,3.2,6.3s-2.7,4.5-4.8,6.1
	c-4.2,3-8.8,4.5-13.7,6.2c-0.1,2.6-0.1,5.1,0.2,7.7c0.6,4.7,1.6,9.4,3,13.9c0.4,1.2,0.7,2.4,1.2,3.6c0.7-5.5,3-10.8,6.5-15.1
	c1.4-1.7,3.4-3.5,5.6-3.3c2.6,0.2,4.4,3.2,4.2,5.8c-0.2,2.6-1.9,4.9-3.8,6.7c-3.5,3.4-7.5,5.5-11.8,7.8c2.6,7.5,6,14.7,9.8,21.6
	c-0.7-5.7,0.4-11.7,2.9-16.8c1-2,2.5-4.1,4.8-4.4c2.6-0.4,5,2.1,5.3,4.7c0.4,2.6-0.8,5.2-2.3,7.4c-2.8,4.2-6.3,7.2-10.1,10.5
	c0.5,0.9,1,1.8,1.5,2.7c2.9,5,6,9.8,9.4,14.5c-0.6-5.6,0.5-11.4,3-16.4c1-2,2.5-4.1,4.8-4.4c2.6-0.4,5,2.1,5.3,4.7s-0.8,5.2-2.3,7.4
	c-2.7,4.1-6.1,7.1-9.7,10.2c3.9,5.3,8.2,10.3,12.8,15c1,1-0.6,2.4-1.6,1.4c-4.7-4.7-9-9.8-12.9-15.1c-5.3,2.7-11.5,3.7-17.5,2.9
	C543.5,420.4,541,419.6,540,417.6z M394.4,196.1c0.1-2.6-1.6-5-3.9-6.2c-2.3-1.2-5.1-1.2-7.6-0.6c-2.5,0.7-4.8,2-6.9,3.4
	c-3.5,2.4-6.9,5.3-9,9c-1.5-6.1-2.5-12.3-3-18.6c0-0.6-0.1-1.1-0.1-1.7c4.5-0.1,9-0.1,13.4-0.2c3,0,6.1-0.1,8.8-1.2
	c2.8-1.1,5.2-3.7,5.3-6.7c0.1-2.6-1.6-5-3.9-6.2s-5.1-1.2-7.6-0.6c-2.5,0.7-4.8,2-6.9,3.4c-3.7,2.5-7.1,5.5-9.2,9.3
	c-0.4-7-0.1-14,0.7-20.9c4.5-0.2,9.1-0.5,13.6-0.7c3-0.1,6.1-0.3,8.8-1.6c2.7-1.3,5-3.9,5-6.9c0-2.6-1.8-5-4.2-6.1
	c-2.3-1.1-5.1-1-7.6-0.3s-4.7,2.1-6.8,3.7c-3.3,2.4-6.5,5.4-8.5,9c0.7-5,1.7-10,3-14.8c0.4-1.4,0.8-2.9,1.3-4.3
	c4.7-0.4,9.3-0.8,14-1.2c3-0.2,6-0.5,8.7-1.9c2.7-1.3,4.9-4,4.8-7c-0.1-2.6-2-4.9-4.4-5.9c-2.4-1-5.1-0.9-7.6,0
	c-2.5,0.8-4.6,2.3-6.7,3.9c-2.9,2.3-5.6,5-7.5,8.1c1.7-4.8,3.7-9.5,5.9-14c3.8-2.5,7.6-5,11.5-7.5c2.5-1.6,5.1-3.3,6.8-5.8
	c1.7-2.5,2.4-5.9,0.9-8.5c-1.3-2.2-4.1-3.4-6.7-3.1s-4.9,1.7-6.7,3.6c-1.8,1.9-3,4.2-4,6.6c-1.9,4.4-3.2,9.2-2.7,13.9c0,0,0,0,0,0
	c-2.4,4.8-4.5,9.8-6.3,14.9c-0.1-3.8-1.2-7.7-2.7-11.3c-1-2.4-2.2-4.7-4-6.6c-1.7-1.9-4.1-3.4-6.7-3.6s-5.3,0.9-6.7,3.1
	c-1.5,2.6-0.9,6,0.8,8.5c1.7,2.5,4.2,4.2,6.7,5.8c3.8,2.5,7.6,5,11.4,7.6c-2,6.3-3.4,12.8-4.3,19.3c-0.9-3.9-3.1-7.6-5.6-10.8
	c-1.6-2.1-3.3-4-5.5-5.4s-4.8-2.2-7.4-1.8c-2.6,0.4-5,2.2-5.7,4.6c-0.9,2.9,0.6,6,2.9,8s5.2,3,8,4c4.3,1.5,8.6,3,12.9,4.5
	c0,0.2-0.1,0.4-0.1,0.6c-0.8,6.8-1,13.6-0.6,20.4c-1.6-4.2-4.8-7.8-8.2-10.8c-2-1.7-4.1-3.3-6.5-4.2c-2.4-0.9-5.2-1.2-7.6-0.3
	s-4.4,3.1-4.7,5.7c-0.3,3,1.8,5.8,4.4,7.2s5.7,1.9,8.6,2.3c4.7,0.6,9.3,1.2,14,1.8c0,0.1,0,0.2,0,0.3l-0.1,0.1c0,0,0.1,0,0.1,0
	c0.4,6.6,1.4,13.2,2.9,19.7c-2.8-2.9-6.6-5-10.4-6.6c-2.4-1-5-1.9-7.6-2c-2.6-0.1-5.4,0.5-7.4,2.1c-2.1,1.7-3.3,4.4-2.7,7
	c0.7,3,3.6,5,6.6,5.6c3,0.6,6.1,0,9.1-0.6c4.3-0.8,8.5-1.6,12.8-2.4c0.1,0,0.3,0,0.4,0c1.8,7.1,4.3,14,7.4,20.6
	c0.3,0.7,1.5,0.3,1.1-0.4c-3.1-6.5-5.5-13.3-7.3-20.2c4.3,0,8.5-0.1,12.8-0.1c3,0,6.1-0.1,8.8-1.2
	C391.9,201.6,394.3,199.1,394.4,196.1z M842.7,258.8c1.4-2.2,1.2-5.1-0.1-7.4s-3.7-3.7-6.2-4.4c-2.5-0.7-5.1-0.8-7.7-0.7
	c-4.3,0.2-8.7,1-12.4,3c1.9-6,4.3-11.8,7.1-17.4c0.3-0.5,0.5-1,0.8-1.5c3.9,2.3,7.7,4.6,11.6,6.9c2.6,1.5,5.2,3.1,8.2,3.5
	c3,0.5,6.3-0.4,8-3c1.4-2.2,1.2-5.1-0.1-7.4s-3.7-3.7-6.2-4.4c-2.5-0.7-5.1-0.8-7.7-0.7c-4.4,0.2-8.9,1-12.8,3.2
	c3.3-6.1,7.2-12,11.5-17.5c4,2.2,8,4.3,12,6.5c2.6,1.4,5.3,2.9,8.3,3.2c3,0.3,6.3-0.7,7.8-3.3c1.3-2.2,1-5.2-0.4-7.3
	c-1.4-2.2-3.8-3.5-6.3-4.2c-2.5-0.6-5.1-0.6-7.7-0.4c-4.1,0.4-8.3,1.2-11.9,3.2c3.2-3.9,6.6-7.6,10.3-11.1c1.1-1,2.2-2,3.3-3
	c4.2,2.1,8.4,4.2,12.5,6.3c2.7,1.3,5.4,2.7,8.4,3c3,0.2,6.3-0.9,7.7-3.5c1.3-2.3,0.8-5.2-0.7-7.3c-1.5-2.1-3.9-3.4-6.5-4
	c-2.5-0.6-5.2-0.4-7.7-0.1c-3.7,0.4-7.4,1.3-10.7,3c3.9-3.2,8-6.2,12.4-8.9c4.6-0.1,9.1-0.3,13.7-0.4c3-0.1,6.1-0.2,8.8-1.4
	c2.7-1.2,5.1-3.8,5.1-6.8c0-2.6-1.7-5-4.1-6.1c-2.3-1.1-5.1-1.1-7.6-0.4c-2.5,0.7-4.7,2.1-6.9,3.5c-3.9,2.7-7.5,6.1-9.5,10.5
	c0,0,0,0,0,0c-4.6,2.9-9,6-13.1,9.5c2-3.3,3-7.2,3.5-11c0.4-2.6,0.6-5.2,0.1-7.7c-0.5-2.5-1.7-5-3.8-6.6c-2.1-1.6-5-2-7.3-0.9
	c-2.7,1.4-3.9,4.7-3.7,7.6c0.2,3,1.5,5.8,2.7,8.5c1.9,4.1,3.9,8.3,5.8,12.4c-5,4.4-9.6,9.1-13.8,14.3c1.2-3.9,1.3-8.1,0.9-12.2
	c-0.3-2.6-0.7-5.2-1.9-7.5c-1.1-2.3-2.9-4.4-5.3-5.4c-2.4-1-5.4-0.7-7.3,1c-2.2,2-2.6,5.5-1.7,8.3c0.9,2.9,2.8,5.2,4.7,7.5
	c2.9,3.5,5.8,7,8.7,10.5c-0.1,0.2-0.3,0.3-0.4,0.5c-4.2,5.4-7.9,11.1-11.1,17.1c0.8-4.5,0-9.2-1.4-13.5c-0.8-2.5-1.8-4.9-3.3-7
	c-1.6-2.1-3.8-3.7-6.3-4.2s-5.4,0.4-6.9,2.4c-1.8,2.4-1.5,5.9,0,8.5s3.8,4.6,6.2,6.4c3.7,2.9,7.3,5.9,11,8.8c0,0.1-0.1,0.2-0.1,0.3
	l-0.1,0c0,0,0.1,0,0.1,0.1c-3.1,5.9-5.7,12-7.7,18.3c-0.9-4-3-7.7-5.4-11c-1.6-2.1-3.3-4.2-5.5-5.7s-4.8-2.4-7.5-2.1
	c-2.6,0.3-5.1,2.1-5.9,4.6c-0.9,2.9,0.5,6.1,2.7,8.2c2.3,2.1,5.2,3.2,8,4.2c4.1,1.5,8.1,3,12.2,4.5c0.1,0.1,0.2,0.1,0.3,0.2
	c-2.1,7-3.6,14.2-4.4,21.5c-0.1,0.8,1.1,1,1.2,0.3c0.8-7.1,2.2-14.2,4.3-21.1c3.7,2.2,7.3,4.3,11,6.5c2.6,1.5,5.2,3.1,8.2,3.5
	C837.7,262.2,841.1,261.3,842.7,258.8z"/>
<path class="st1" d="M242.2,251.6c10.5,0.2,28.5-12.8,38-8.1c-2.6,12.1-19.2,5.4-28.3,9.3c-8.1,4.6,14.6,18.8,28.1,16.4
	c11.1-1.5,12.8-15.8,30.4-30.6c14.9-12.9,21-10.9,25.8-20.3c8.8-17.3-2.6-41.4-5.1-41.1c-1,0.1-0.1,4.1-2.5,12.6
	c0.4,1-13.2,32.4-16.9,18.6c-0.1-15.5,19-18.8,15.4-38c-2.7-14.3-22.1-22.2-23.1-21c8.8,6.5,4.3,34.2-4.3,42.4
	c-5.5,4.5-5.8-1.4-4.2-7.7c2.8-21.3,5.7-32.4-5-46c-13.2-16.7-33.6-6.1-56.9-11.6c0,0-16.4,24.4-12,43.6
	c4.3,18.5,24.3,11.3,34.2,19.4c4.6,3.1,3.2,10.1-1.3,11.9c-7.1,4.5-17.6,0.8-25.1-2c-12.5-4.6-15.7-9.1-18.1-7.4
	c-6.4,4.3,5.8,28.6,17.8,29.2c12.7,6.5,36.5-9.4,47.3,1.8c-4.1,10.5-34.9,11.2-46.4,7.2c-5.8-2.8-8.7-7.1-9.7-6.4
	C220.7,230.7,232.8,250.8,242.2,251.6z"/>
<path class="st2" d="M265,258.8c3.2,0.9,6.5,1,9.7,0.3c3.1-0.7,6-2.1,8.5-4c2.8-2.1,5.2-4.6,7.6-7.1c2.7-2.7,5.4-5.2,8.4-7.5
	c1.3-1,2.7-2.1,4.1-3c1.2-0.7,2.6-1.3,4-0.9c0,0,0,0,0,0c0.2,0.2,0.3,0.4,0.5,0.6c0.5,0.7,1,1.4,1.5,2.2c0.1-0.1,0.2-0.2,0.3-0.2
	c-0.9-1.3-1.8-2.7-2.8-3.9c0,0,0,0,0,0c-0.3-0.6-0.4-1.3-0.5-2c-0.1-0.6-0.1-1.4,0.1-2c0.4-0.9,1.2-1.7,1.9-2.4
	c0.7-0.7,1.4-1.4,2.2-2c5.2-4.6,11-8.6,15.5-13.9c3.7-4.3,6.7-9.6,6.9-15.5c0-0.2-0.4-0.2-0.4,0c-0.1,3.4-1.2,6.7-2.9,9.6
	c-3.2,5.8-8.3,10.2-13.4,14.3c-2.8,2.3-5.6,4.6-8.2,7.1c-1,0.9-2.1,2-2.1,3.5c-0.1,0.8,0.1,1.6,0.3,2.4c-2.9-3.4-6.4-6.3-9.8-9.3
	c-0.2-0.1-0.3-0.3-0.5-0.4c0,0,0,0,0,0c-1.1-3.1-1.2-6.5-0.6-9.7c1.2-6.6,5.2-12,9.2-17.1c1.1-1.4,2.2-2.8,3.3-4.2
	c1-1.3,2.1-2.7,2.9-4.2c1.4-2.5,2.2-5.6,1.1-8.3c-0.1-0.2-0.4-0.1-0.4,0.1c1.4,3.5-0.3,7.1-2.3,10c-4,5.7-9,10.7-12.1,17
	c-2.3,4.9-3.4,10.7-1.7,15.9c-3.2-2.7-6.4-5.5-9-8.8c-1.5-1.8-2.7-3.7-3.8-5.7c0,0,0,0,0-0.1c0,0,0,0,0-0.1c-1-1.8-1.9-3.7-2.7-5.6
	c-1.4-3.2-2.6-6.4-3.9-9.6c0-3.6,0.8-7.2,1.9-10.7c2-6.2,5.1-12.2,5.6-18.7c0.5-5.8-1.7-12.6-7.3-15.3c-0.2-0.1-0.4,0.2-0.2,0.3
	c3.1,1.5,5.3,4.4,6.3,7.7c2.1,6.3,0,12.9-2.2,18.8c-2.1,5.5-4.4,11.2-4.5,17.1c-0.2-0.4-0.3-0.8-0.5-1.2c-1.8-4.1-4-7.9-6.6-11.5
	c-5.4-7.3-12.2-13.5-18.9-19.5c-0.2-0.2-0.4,0.1-0.3,0.3c0.8,0.7,1.6,1.5,2.5,2.2c6.5,5.9,12.9,12,17.8,19.2
	c-1.9-1.4-4.4-1.8-6.7-2.2c-2.9-0.5-6.2-1.3-7.7-4c-0.1-0.2-0.4,0-0.3,0.2c1.5,2.5,4.5,3.5,7.2,4c2.8,0.6,6,1,8.2,3c0,0,0,0,0,0
	c0,0,0,0,0,0c2.4,3.7,4.2,7.6,5.9,11.7c1.6,3.9,3.1,7.8,4.9,11.6c0.2,0.4,0.4,0.7,0.5,1.1c-2.5-2.3-6-3.2-9.4-3.3
	c-3.9,0-7.6,1.2-11.3,2.3c-3.6,1.2-7.3,2.1-11,2.5c-7.3,0.8-14.7-0.1-21.6-2.6c-0.2-0.1-0.3,0.3-0.1,0.4c3.7,1.4,7.7,2.2,11.6,2.6
	c3.6,0.4,7.2,0.3,10.7-0.1c3.7-0.5,7.2-1.4,10.7-2.5c3.7-1.2,7.4-2.4,11.3-2.2c3.6,0.1,7.5,1.3,9.7,4.3c1.6,2.9,3.6,5.7,5.9,8.1
	c3.2,3.4,6.8,6.3,10.3,9.3c0.3,0.3,0.6,0.5,0.9,0.8c-2.5-0.6-5.1-0.5-7.6,0c-2.7,0.6-5.2,1.7-7.6,2.9c-2.6,1.2-5.1,2.4-7.8,3.3
	c-5.2,1.8-10.6,2.9-16,3.3c-0.2,0-0.2,0.4,0,0.4c3-0.2,6-0.6,8.9-1.3c2.6-0.6,5.2-1.3,7.7-2.2c2.6-0.9,5.1-2.1,7.6-3.2
	c2.5-1.2,5-2.3,7.8-2.8c2.5-0.5,5.2-0.5,7.7,0.3c0,0,0,0,0,0c2.6,2.3,5.1,4.7,7.2,7.4c-1.3-0.2-2.6,0.2-3.7,0.9
	c-1.6,1-3.1,2.2-4.6,3.4c-2.9,2.3-5.6,4.7-8.2,7.3c-2.5,2.5-4.9,5.1-7.8,7.2c-2.6,1.9-5.5,3.3-8.7,3.8c-3,0.5-6.1,0.4-9-0.4
	C264.9,258.4,264.8,258.8,265,258.8z"/>
<path class="st1" d="M829.7,288.5c-0.1,10.5,13,28.3,8.5,38c-12.1-2.5-5.6-19.2-9.6-28.2c-4.7-8-18.7,14.8-16.1,28.2
	c1.6,11.1,15.9,12.7,30.8,30.1c13,14.8,11,20.9,20.5,25.6c17.4,8.7,41.4-3,41-5.5c-0.1-1-4.1,0-12.6-2.4c-1,0.4-32.5-12.9-18.7-16.7
	c15.5-0.2,19,18.8,38.1,15.1c14.3-2.8,22-22.3,20.8-23.3c-6.4,8.8-34.1,4.5-42.5-3.9c-4.6-5.5,1.4-5.9,7.6-4.2
	c21.4,2.6,32.4,5.4,45.9-5.4c16.6-13.3,5.8-33.7,11.2-57c0,0-24.5-16.2-43.7-11.6c-18.4,4.4-11,24.4-19.1,34.4
	c-3.1,4.7-10.1,3.3-12-1.2c-4.6-7.1-0.9-17.6,1.8-25.1c4.5-12.5,8.9-15.8,7.2-18.1c-4.3-6.3-28.5,6.1-29.1,18
	c-6.4,12.7,9.7,36.5-1.4,47.3c-10.6-4-11.5-34.9-7.6-46.4c2.7-5.8,7.1-8.8,6.4-9.7C850.3,266.8,830.4,279.1,829.7,288.5z"/>
<path class="st2" d="M822.6,311.4c-0.9,3.2-0.9,6.5-0.2,9.7c0.7,3.1,2.1,5.9,4,8.5c2.1,2.8,4.7,5.1,7.1,7.5c2.7,2.6,5.2,5.4,7.6,8.3
	c1.1,1.3,2.2,2.7,3.1,4.1c0.8,1.2,1.4,2.6,0.9,4c0,0,0,0,0,0c-0.2,0.2-0.4,0.3-0.6,0.5c-0.7,0.5-1.4,1-2.2,1.5
	c0.1,0.1,0.2,0.2,0.2,0.3c1.3-0.9,2.6-1.8,3.9-2.8c0,0,0,0,0,0c0.6-0.3,1.3-0.4,2-0.5c0.6-0.1,1.4-0.1,2,0.1
	c0.9,0.4,1.7,1.2,2.4,1.8c0.7,0.7,1.4,1.4,2,2.1c4.7,5.1,8.7,10.9,14,15.4c4.4,3.7,9.7,6.6,15.5,6.8c0.2,0,0.2-0.4,0-0.4
	c-3.4-0.1-6.7-1.2-9.7-2.8c-5.8-3.2-10.2-8.2-14.4-13.3c-2.3-2.8-4.6-5.6-7.2-8.2c-0.9-0.9-2.1-2-3.5-2.1c-0.8,0-1.6,0.1-2.4,0.3
	c3.4-3,6.3-6.4,9.2-9.9c0.1-0.2,0.3-0.3,0.4-0.5c0,0,0,0,0,0c3.1-1.1,6.4-1.3,9.7-0.7c6.6,1.2,12,5.1,17.2,9.1
	c1.4,1.1,2.8,2.2,4.2,3.3c1.3,1,2.7,2,4.2,2.8c2.5,1.4,5.6,2.2,8.3,1c0.2-0.1,0.1-0.4-0.1-0.4c-3.5,1.4-7.1-0.2-10-2.2
	c-5.7-3.9-10.8-9-17.1-11.9c-4.9-2.3-10.7-3.3-15.9-1.6c2.7-3.2,5.5-6.4,8.7-9.1c1.8-1.5,3.7-2.7,5.7-3.9c0,0,0,0,0.1,0
	c0,0,0,0,0.1,0c1.8-1,3.7-1.9,5.6-2.8c3.2-1.4,6.4-2.7,9.6-4c3.6-0.1,7.3,0.8,10.7,1.9c6.2,1.9,12.2,5,18.8,5.4
	c5.9,0.4,12.6-1.8,15.2-7.4c0.1-0.2-0.2-0.4-0.3-0.2c-1.5,3.2-4.4,5.3-7.6,6.4c-6.3,2.1-12.9,0.1-18.8-2.1c-5.5-2-11.2-4.3-17.1-4.4
	c0.4-0.2,0.8-0.3,1.2-0.5c4-1.8,7.9-4.1,11.4-6.7c7.3-5.5,13.4-12.3,19.4-19.1c0.2-0.2-0.1-0.4-0.3-0.3c-0.7,0.8-1.5,1.7-2.2,2.5
	c-5.8,6.5-11.9,13-19.1,18c1.3-2,1.8-4.4,2.2-6.7c0.5-2.9,1.3-6.2,4-7.8c0.2-0.1,0-0.4-0.2-0.3c-2.5,1.5-3.5,4.5-4,7.2
	c-0.5,2.8-0.9,6-3,8.2c0,0,0,0,0,0c0,0,0,0,0,0c-3.7,2.4-7.6,4.3-11.7,6c-3.9,1.6-7.8,3.1-11.6,5c-0.4,0.2-0.7,0.4-1.1,0.6
	c2.3-2.5,3.2-6.1,3.2-9.4c0-3.9-1.2-7.6-2.4-11.2c-1.2-3.6-2.2-7.2-2.6-11c-0.8-7.3,0-14.7,2.4-21.6c0.1-0.2-0.3-0.3-0.4-0.1
	c-1.3,3.8-2.2,7.7-2.5,11.6c-0.3,3.6-0.3,7.2,0.2,10.7c0.5,3.7,1.5,7.2,2.6,10.7c1.2,3.7,2.4,7.4,2.3,11.3c-0.1,3.6-1.2,7.5-4.2,9.8
	c-2.9,1.7-5.6,3.6-8.1,5.9c-3.4,3.2-6.3,6.8-9.2,10.4c-0.3,0.3-0.5,0.6-0.8,0.9c0.6-2.5,0.5-5.1-0.1-7.6c-0.6-2.7-1.8-5.2-2.9-7.6
	c-1.2-2.5-2.4-5.1-3.3-7.7c-1.8-5.2-3-10.5-3.4-16c0-0.2-0.4-0.2-0.4,0c0.2,3,0.7,6,1.4,8.9c0.6,2.6,1.4,5.2,2.3,7.7
	c1,2.6,2.1,5.1,3.3,7.5c1.2,2.5,2.3,5,2.9,7.7c0.5,2.5,0.5,5.2-0.2,7.7c0,0,0,0,0,0c-2.3,2.6-4.7,5.1-7.4,7.3
	c0.2-1.3-0.3-2.6-0.9-3.7c-1-1.6-2.2-3.1-3.4-4.6c-2.3-2.9-4.8-5.6-7.4-8.1c-2.5-2.5-5.2-4.9-7.3-7.7c-1.9-2.6-3.3-5.5-3.9-8.7
	c-0.6-3-0.4-6.1,0.4-9C823,311.3,822.6,311.2,822.6,311.4z"/>
<path class="st3" d="M355.7,482.1H174.1v-82l181.6-215.9h86.9v220.5h45v77.3h-45v67.1h-86.9V482.1z M355.7,404.8V291.9l-96,112.9
	L355.7,404.8L355.7,404.8z"/>
<rect x="468.9" y="404.8" class="st4" width="18.7" height="77.3"/>
<rect x="423.8" y="184.3" class="st4" width="18.7" height="220.5"/>
<polygon class="st4" points="259.7,404.8 355.7,294.5 355.7,272.6 241,404.8 "/>
<rect x="423.8" y="482.1" class="st4" width="18.7" height="67.1"/>
<path class="st3" d="M1091.5,482.1H909.9v-82l181.6-215.9h86.9v220.5h45v77.3h-45v67.1h-86.9V482.1z M1091.5,404.8V291.9l-96,112.9
	L1091.5,404.8L1091.5,404.8z"/>
<rect x="1204.7" y="404.8" class="st4" width="18.7" height="77.3"/>
<rect x="1159.7" y="184.3" class="st4" width="18.7" height="220.5"/>
<polygon class="st4" points="995.5,404.8 1091.5,294.5 1091.5,272.6 976.8,404.8 "/>
<rect x="1159.7" y="482.1" class="st4" width="18.7" height="67.1"/>
<path class="st3" d="M557.3,354.8c0-71,12.8-120.7,38.3-149.1c25.6-28.4,64.5-42.5,116.8-42.5c25.1,0,45.8,3.1,61.9,9.3
	c16.1,6.2,29.3,14.3,39.5,24.2c10.2,9.9,18.2,20.4,24.1,31.3c5.9,11,10.6,23.7,14.1,38.3c7,27.9,10.4,56.9,10.4,87.1
	c0,67.8-11.5,117.4-34.4,148.8c-22.9,31.4-62.4,47.1-118.5,47.1c-31.4,0-56.8-5-76.2-15c-19.4-10-35.2-24.7-47.6-44.1
	c-9-13.8-16-32.6-21-56.4C559.8,410,557.3,383.6,557.3,354.8z M660.2,355c0,47.6,4.2,80,12.6,97.5c8.4,17.4,20.6,26.1,36.6,26.1
	c10.5,0,19.7-3.7,27.4-11.1c7.7-7.4,13.4-19.1,17.1-35c3.7-16,5.5-40.8,5.5-74.7c0-49.6-4.2-82.9-12.6-100
	c-8.4-17.1-21-25.6-37.8-25.6c-17.2,0-29.6,8.7-37.2,26.1C664.1,275.7,660.2,308,660.2,355z"/>
<path class="st4" d="M697.6,233.7c-3.5-1-7.3-1.5-11.3-1.5c-17.2,0-29.6,8.7-37.2,26.1c-7.6,17.4-11.5,49.6-11.5,96.7
	c0,47.6,4.2,80,12.6,97.5c8.4,17.4,20.6,26.1,36.6,26.1c4,0,7.8-0.5,11.4-1.6c-10.6-3.2-19.1-11.4-25.4-24.5
	c-8.4-17.4-12.6-49.9-12.6-97.5c0-47,3.8-79.3,11.5-96.7C677.6,245,686.2,236.8,697.6,233.7z M852.1,266.3
	c-3.6-14.6-8.3-27.4-14.1-38.3c-5.9-11-13.9-21.4-24.1-31.3c-10.2-9.9-23.4-18-39.5-24.2c-16.1-6.2-36.8-9.3-61.9-9.3
	c-3.8,0-7.5,0.1-11.2,0.2c20,0.8,36.9,3.8,50.5,9.1c16.1,6.2,29.3,14.3,39.5,24.2c10.2,9.9,18.2,20.4,24.1,31.3
	c5.9,11,10.6,23.7,14.1,38.3c7,27.9,10.4,56.9,10.4,87.1c0,67.8-11.5,117.4-34.4,148.8c-21.4,29.3-57.1,44.9-107.2,46.9
	c3.7,0.2,7.4,0.2,11.3,0.2c56.1,0,95.5-15.7,118.5-47.1c22.9-31.4,34.4-81,34.4-148.8C862.5,323.3,859.1,294.2,852.1,266.3z"/>
<path class="st5" d="M705.5,153.1c0,0-14.8,2.2-14.6,2c0.3-0.1,27.1,13.6,27.1,13.6l26.5-11.9l-13.1-3.8H705.5z"/>
<path class="st6" d="M711.2,173.3c-0.1,0-0.2,0-0.2,0c0,0-0.1,0-0.1,0c-3.8,0-6.2-0.1-6.2-0.1s-0.2,0-0.5,0.1
	c-3.2,0.7-20.6,4-19.1-2.6c1.3-5.8,11.7-5,15.9-4.5c0,0,0,0,0,0c1,0.1,1.7,0.3,1.7,0.3s2.1-0.9,5.3-2.2c0.1-0.1,0.3-0.1,0.4-0.2
	c10.8-4.2,33.5-12.1,39.3-7.4c0,0,0,0,0,0c0.1,0,0.1,0.1,0.2,0.2c0,0,0,0,0,0c0.1,0.1,0.1,0.1,0.2,0.2c0.1,0,0.1,0.1,0.1,0.2
	c0,0,0,0,0.1,0.1c0.1,0.1,0.1,0.2,0.2,0.3c0,0,0,0,0,0c0.1,0.1,0.1,0.2,0.2,0.3c0.1,0.1,0.1,0.2,0.1,0.3c0.1,0.2,0.2,0.4,0.2,0.7
	c0.1,0.2,0.1,0.5,0.1,0.7c0.1,0.4,0.1,0.8,0.1,1.2C748.8,171.5,723.5,173.1,711.2,173.3z"/>
<path class="st7" d="M711.4,174.5l-0.4-1.2l-0.2-0.5c0,0,0,0,0,0l-2.8-8.4l-0.4-1.2c10.8-4.2,34.2-11.3,40.2-6.3l0,0
	c0.1,0.1,0.1,0.1,0.2,0.2c0,0,0,0,0,0c0.1,0.1,0.1,0.1,0.2,0.2c0.1,0,0.1,0.1,0.1,0.2c0,0,0,0,0.1,0.1c0.1,0.1,0.1,0.2,0.2,0.3
	c0,0,0,0,0,0c0.1,0.1,0.1,0.2,0.2,0.3c0.1,0.1,0.1,0.2,0.1,0.3c0.1,0.2,0.2,0.4,0.2,0.7c0.1,0.2,0.1,0.5,0.1,0.7
	c0.1,0.4,0.1,0.8,0.1,1.2C748.8,171.6,723.7,174.4,711.4,174.5z M702.6,166.6c0,0-19.7-3.8-20.5,4.5c-0.9,8.9,22.5,2.2,22.5,2.2
	s-9,2-8.6-3.1C696.4,165.3,702.6,166.6,702.6,166.6z"/>
<path class="st6" d="M731.9,132.8c-3.9,5.4-0.4,20.2-0.4,20.2h-25.9c0.7-1,2.7-13.8-1.8-20.8c-7.3-11.4,0.6-20.2,0.6-20.2l10.8-2
	l0.7-3.4l0.5-2.4l0.1-0.5h4.8l0.2,1l0.4,2.2l0.6,3.3l9.9,2.1C732.2,112.5,740.7,120.4,731.9,132.8z"/>
<path class="st8" d="M731.8,132.8c-3.9,5.4-0.4,20.2-0.4,20.2h-25.9c0.6-0.9,2.2-10.3-0.2-17.4c-0.4-1.2-0.9-2.4-1.6-3.5
	c-7.3-11.4,0.6-20.2,0.6-20.2l10.8-2c0.4,2.4,6.3,2.3,7.2,0.2l9.9,2.2C732.2,112.5,740.7,120.4,731.8,132.8z"/>
<path class="st9" d="M705.5,153.1c0.6-0.9,2.2-10.3-0.2-17.4c5.1-1.5,4.2,12.7,12.8,17.4H705.5z"/>
<path class="st6" d="M745.9,144.1c-0.3,1.7-1.5,3.5-3.2,5.3c-4.5,4.6-13.6,4.4-19.8,6.1l-0.7-3.3c0,0,11.2-3.1,13.6-7.1
	c0.3-0.4,0.4-0.8,0.5-1.2c0.8-3.9-3.7-8.8-3.7-8.8l-0.5-22.7C732.1,112.5,747.3,135.6,745.9,144.1z"/>
<path class="st8" d="M746.1,144.1c-0.3,1.6-1.2,3.6-2.8,5.3c-0.2,0.2-0.4,0.2-0.6,0.1l-1.9-1.2l-5-3.3c0.3-0.4,0.4-0.8,0.5-1.2
	c0.8-3.9-6.4-9.9-6.4-9.9l1.7-21.5c2.3-0.1,6.2,5.2,9.3,11.7c0,0,0,0,0,0C744.2,131.2,746.9,139.6,746.1,144.1z"/>
<path class="st6" d="M714.6,152.2l0.1,2.2c0.2-0.1,0.2-0.4,0-0.4c-5.6-1.2-14.7,0.4-19.2-3.3c-2.7-2.3-4.2-5.2-4.6-7.4
	c-1.4-8.5,13.4-31.2,13.4-31.2l-0.5,22.6c0,0-4.5,4.9-3.7,8.8c0.1,0.7,0.7,1.6,1.5,2.5C705,149.9,714.6,152.2,714.6,152.2z"/>
<path class="st8" d="M700.1,143.4c0.1,0.7,1.1,1.3,1.9,2.2l-4.7,3.9l-1.9,1.6c-2.7-2.3-4.4-5.3-5-7.5c-0.9-3.3,0.4-9,2.6-14.7
	c0,0,0,0,0,0c3.4-8.5,8.8-16.9,11.7-17l1.6,23C706.5,134.9,699.3,139.5,700.1,143.4z"/>
<path class="st6" d="M751.3,170.1c1.6,6.7-16.2,3.4-19.5,2.8c-0.3-0.1-0.5-0.1-0.5-0.1s-2.6,0.1-6.5,0.1c-0.1,0-0.2,0-0.2,0
	c-5.7,0-14.1-0.3-21.6-1.7c-9.2-1.6-17.2-4.8-17.2-11c0,0,0,0,0,0c0-0.2,0-0.5,0-0.8c0,0,0,0,0,0c0-0.3,0.1-0.5,0.1-0.8
	c0.1-0.2,0.1-0.5,0.2-0.7c0-0.1,0.1-0.2,0.1-0.3c0.1-0.1,0.1-0.2,0.2-0.3c0,0,0,0,0,0c0.1-0.1,0.1-0.2,0.2-0.3c0,0,0,0,0.1-0.1
	c0-0.1,0.1-0.1,0.1-0.2c0.1-0.1,0.1-0.1,0.2-0.2c0,0,0,0,0,0c0.7-0.7,1.7-1.1,2.9-1.4c8.5-1.9,27.6,4.7,37.4,8.4
	c0.1,0.1,0.3,0.1,0.4,0.2c3.3,1.3,5.5,2.2,5.5,2.2s0.7-0.1,1.7-0.3c0,0,0,0,0,0C739.3,165,749.9,164.2,751.3,170.1z"/>
<path class="st10" d="M728.2,162.5l-0.4,1.2l-3,9.1l-0.4,1.3c-5.2,0-12.5-0.5-19.5-1.8c0,0,0,0,0,0c-10.1-1.9-19.2-5.5-19.2-12.2
	c0,0,0,0,0,0c0-0.2,0-0.5,0-0.8c0,0,0,0,0,0c0-0.3,0.1-0.5,0.1-0.8c0.1-0.2,0.1-0.5,0.2-0.7c0-0.1,0.1-0.2,0.1-0.3
	c0.1-0.1,0.1-0.2,0.2-0.3c0,0,0,0,0,0c0.1-0.1,0.1-0.2,0.2-0.3c0,0,0,0,0.1-0.1c0-0.1,0.1-0.1,0.1-0.2c0.1-0.1,0.1-0.1,0.2-0.2
	c0,0,0,0,0,0c0.7-0.7,1.8-1.2,3.1-1.5C698.9,152.9,718.5,158.8,728.2,162.5z M733.3,165.9c0,0,20-4.1,20.9,4.4
	c1,9.1-22.9,2.5-22.9,2.5s8.7,1.7,8.3-3.5C739.1,164.3,733.3,165.9,733.3,165.9z"/>
<path class="st3" d="M736.6,133.1v21.3c0,1.1-0.9,2.1-2.1,2.1H702c-1.1,0-2.1-0.9-2.1-2.1v-21.3c0-1.1,0.9-2.1,2.1-2.1h32.6
	C735.7,131,736.6,131.9,736.6,133.1z"/>
<path class="st2" d="M715,143.7c0-1.8,1.5-3.2,3.2-3.2c1.8,0,3.2,1.5,3.2,3.2s-1.5,3.2-3.2,3.2C716.4,147,715,145.5,715,143.7z"/>
<path class="st11" d="M736.6,133.1v21.3c0,1.1-0.9,2.1-2.1,2.1H702c-1.1,0-2.1-0.9-2.1-2.1c32.9,1.5,36.7-3.3,34.7-23.3
	C735.7,131,736.6,131.9,736.6,133.1z"/>
<path class="st12" d="M746.1,144.1c-0.3,1.6-1.2,3.6-2.8,5.3c-0.2,0.2-0.4,0.2-0.6,0.1l-1.9-1.2c1-1.7,2.5-3.1,3.2-5.8
	c1.9-7.2-2.8-17.7-3.1-18.3C744.2,131.2,746.9,139.6,746.1,144.1z"/>
<path class="st10" d="M712.1,97.8c0,0-3.9-4.2-0.7-9.7c0,0,1,1.7,2.1,1.2c0,0,0.1-4,8.3-4.9c0,0-0.6,1.6-0.3,2
	c2.7-1.2,5.3,1.8,8,0.7c0,0,0.7,4.7-2.3,7.4c0,0,0.5,1.6-0.6,3.2C725.4,99.4,712.1,97.8,712.1,97.8z"/>
<path class="st6" d="M713.3,96.6c0,0-1.8-1.7-1.9-0.1c-0.2,2,2.2,3.5,2.2,3.5s0.6,6.2,5.8,6.2c5.1,0,6-6.2,6-6.2s2.7-0.7,2.1-3.1
	c-0.3-1.1-1.7,0-1.7,0V94c0,0-1.4,0.7-4.2-0.5c-2-0.9-2.7-2.1-4.5-2C715.1,91.6,713.2,93.8,713.3,96.6z"/>
<path class="st10" d="M446.6,328.8c0,0,4.7-3.4,1.6-8.5c-3.1-5-9.9-3.6-11.2-1c-2.5-0.4-4.5,1.3-5.6,2.9c-0.9,1.2-1.9,3.8-0.6,8.7
	c1.3,4.9-5.7,7.7-6.7,11c-0.6,2.1,0.3,4.4,4.7,4.9s15.9-4.2,15.9-4.2C446,342.6,451.1,337.5,446.6,328.8z"/>
<path class="st13" d="M479.9,442.7c-2-10.2-3.1-18.6-2.8-26c0.2-5.4,0.7-10.4,1.2-15.4l-31.3-17.9l-10-5.7H456
	c0,0,27.2,8.8,31.8,16.5c3.1,5.2,2.5,16.8,1,27.4c-1.5,11.1-4,21-4,21L479.9,442.7L479.9,442.7z"/>
<path class="st7" d="M479.8,442.5l-1.6,5.3l1,8.2l1.6,0.1l1.5-7.1l2.6,4.7c0.7,1.3,1.8,2.3,3.2,2.5c3.8,0.5,11.3,0.6,11.6-1.9
	c0.3-2.6-6.9-2.7-9-5.5c-2-2.7-4.5-6.3-4.5-6.3L479.8,442.5z M488.9,421.7l-6.5,1.1l-5.3-6l-23.4-26.6l-6.7-6.7l-5.7-5.7H456
	c0,0,27.2,8.8,31.8,16.5C491,399.5,490.3,411.1,488.9,421.7z"/>
<path class="st6" d="M485.5,443c-5.7-4.9-9.5-11.1-12.5-18.1c-1.9-4.6-3.4-9.5-4.7-14.6c0,0-29-2.5-36.7-13.6c-5.2-7.6-1-19-1-19
	c5,0.2,11.5-0.9,15.6,0.4c15.5,5,32.1,11.6,36,22.3c2.3,6.3,3.9,13.3,5.4,21.1c1.3,6.4,2.5,13.9,4.2,21.3L485.5,443z"/>
<path class="st10" d="M487.7,421.6l-9.7,2.2l-4.9,1.1c-1.9-4.6-3.4-9.5-4.7-14.6c0,0-17.1-1.4-28.5-7.1c-3.5-1.7-6.4-3.8-8.2-6.4
	c-4.8-6.9-1.7-17.1-1.1-18.7c0.1-0.2,0.1-0.2,0.1-0.2h0c5,0.1,12-1.4,16.1-0.1c15.5,5,32.3,11.9,36.1,22.6
	C485.3,406.6,486.1,413.8,487.7,421.6z"/>
<path class="st1" d="M449.5,357.7c3.3,3.9,9.1,8.5,12.4,12.4c1.6-1.4,3.6-2.1,4.9-4c-5.6-8.5-11.8-17.1-19-24.4
	C449.2,347.3,448,352.2,449.5,357.7z"/>
<path class="st14" d="M457.4,378.2c-7.7-1-14,2.2-21.8,1.6c-0.9-0.1-1.9-0.2-2.9-0.4c-1.8-0.4-3.1-2-2.9-3.9l2.6-25.2l2.3-7.7
	l0.5-1.8l4.1-2.2l4.5,0.2c6.7,2.9,11.3,10.7,7.2,19.4C447,366.7,457.4,378.2,457.4,378.2z"/>
<path class="st6" d="M443.9,338.9c0,2.5-2.4,2.5-4.7,0l0.6-3.1l0.3-1.9l3.5,1.8L443.9,338.9L443.9,338.9z M459.4,369.6
	c-2,3.1-3.3,2.5-6,2.7c-3.6-0.2-7.4,0.3-11,0.1c-4.3-0.3-10.7,1.1-14.2-1.8c-3.5-2.9,0.9-17.1,2-20.3c1.4-4.2,2.9-6.1,5-9.5
	c-0.9,3.3-1.8,6.4-2.7,9.6c0.6,5,1.1,9.9,1.6,14.9c3.5,0.5,6.1,0.8,9.8,1.4c3.3,0.6,7.7,1.3,11.1,2.2
	C458,367.3,461.5,366.5,459.4,369.6z"/>
<path class="st1" d="M444,366.2c-0.4,2-1,4.6-1.5,6.7c-4.6,0.2-10.1,1.1-14.4-2.5c-4.3-3.6-1.4-18.2,0.3-22.2
	c1.9-4.3,3.4-5.6,6.8-7.5c6.6,6.6-0.3,15.7-1.2,24.5C437.3,365.7,440.7,365.7,444,366.2z"/>
<path class="st6" d="M446.7,322.4c0,0-1.8,3.8-7.8,5.2c0,0-1.9-2.1-2.7-0.8c-0.8,1.3,1.2,3.6,1.2,3.6c0.2,3.7,2.9,6.7,5.7,6
	C449.3,334.8,446.7,322.4,446.7,322.4z"/>
<path class="st10" d="M485.5,443l-1.6,5.3l1,8.2l1.6,0.1l1.5-7.1l2.6,4.7c0.7,1.3,1.8,2.3,3.2,2.5c3.8,0.5,11.3,0.6,11.6-1.9
	c0.3-2.6-6.9-2.7-9-5.5c-2-2.7-4.5-6.3-4.5-6.3L485.5,443z"/>
<path class="st15" d="M448.8,381.3l5.3-15.9c0.5-1,1.6-1.6,2.7-1.6h23.7c2.2,0,3.7,2.3,2.8,4.3l-6.2,13.8c-0.5,1.2-1.7,2-3,2h-23.4
	C449.3,383.9,448.4,382.6,448.8,381.3z"/>
<path class="st2" d="M465.5,376.5c-0.9-0.9-0.9-2.3,0-3.2s2.3-0.9,3.2,0c0.9,0.9,0.9,2.3,0,3.2C467.8,377.4,466.3,377.4,465.5,376.5
	z"/>
<rect x="856" y="491.7" transform="matrix(0.3662 -0.9305 0.9305 0.3662 89.5655 1117.3616)" class="st16" width="18" height="2.4"/>
<path class="st1" d="M842.4,494l-0.3,15.1c0,0,3.5,5.2,4.3,6.6l8.4-9.9c-3-3.6-9.8-14.4-13.7-16.1L842.4,494z"/>
<path class="st10" d="M846.8,480.7c0,0,3.1-3.6,0.6-8.1c-2.2-4-9.6-4.3-12-2.2c-4.6,4-3.3,11.1,1.9,14L846.8,480.7z"/>
<path class="st6" d="M826.2,498.3c4.3,8.1,2.4,12.4,3.5,19.1c0.6,5.3,3.4,13.3,7.1,19c4.5-1.7,13.6-5,18.2-6.7l4.1,3.3
	c-2.1-1.3-19.1-13.3-17.3-20.5c3.2-13.6-0.6-23-0.6-23c0.3-0.8,1.2-3.8,1.5-4.7l-4.5-1.7c-0.8,1.3-2.5,4.2-3.2,5.5
	C834.1,490.1,826.9,497.9,826.2,498.3z"/>
<path class="st14" d="M835.3,534c0.1,0.3,0.3,0.5,0.4,0.8c0.3,0.5,0.7,1.5,1,2c1.9,0,3.8-0.4,5.7-0.6c1.3-0.1,2.7-0.3,4-0.5
	c7.9-1.4,10.3-0.2,16-5.4c-5.9-6.4-14.2-6.9-14.1-18.3c0.1-17.8-7.3-22.2-7.3-22.2c0.3,4.4-2.2,3.2-6.3-0.9
	c-0.3,0.2-6.5,2.8-8.1,7.1C823.3,505.5,826.5,517.7,835.3,534z"/>
<path class="st17" d="M836.7,485.6c1.6,1.6,3.5,2.5,4.8,2.9l1.1-3.5l-4.5-1.7L836.7,485.6z"/>
<path class="st6" d="M836.2,479.4c0,0-2-1.8-1-3.2c1.1-1.6,3.5,1.4,3.5,1.4c2.6,0.4,4.6-0.5,7.1-2.6c0.6-0.5,1.5,0,1.4,0.7
	c-0.1,3.1-0.5,9.1-2.6,10.6c-1.2,0.8-2.6,0.8-3.9,0.4C837.8,485.9,836.2,479.7,836.2,479.4z"/>
<path class="st10" d="M836.7,469.7c0,0-1.8-4.4-5.1-1.9c-3.4,2.5-0.8,6.1,1.8,6C835.9,473.5,836.7,469.7,836.7,469.7z M846.8,480.7
	c0,0-0.6-4.1-0.6-5.9c0,0-0.3,3-4.5,4.4c-3.2,1.1-2.9,4.5-2.9,4.5c-1-2.7-0.6-4-0.2-6.1l1.1-2.8c0,0,2.2-1,2.2-1.1
	c0-0.1,4.4-0.9,4.4-0.9l1.4,2.3L846.8,480.7z"/>
<path class="st6" d="M854.8,546.1c28.7,0.3,55.2-0.6,79.4,1.6c4.8,0.4,9.6-0.1,14.1,0.2c0,0,0.1-5.3,0.2-5.9
	c-4.5-0.9-9.1-2.2-13.7-3.1c-21.4-4-44-7.1-67.3-9.5L854.8,546.1z"/>
<path class="st7" d="M849.9,545.6c12.9,11.3,45.1-3.5,84.6,3l0.7-10.5c-21.4-4-44.4-6.3-67.8-8.7L849.9,545.6z M947.3,547.8l4.8,2.2
	l7.8,0.1l0.3-1.5l-6.6-2.3l4.8-1.9c1.3-0.5,2.4-1.4,2.8-2.7c0.9-3.5,2-10.6-0.3-11.2c-2.4-0.6-3.4,6.2-6.3,7.8
	c-2.8,1.6-6.5,3.5-6.5,3.5L947.3,547.8z"/>
<path class="st6" d="M836.4,536.1c30.3,37.7,47.2-13.3,56.3-11.5c9.1,1.8,21.7,13.8,23.7,15c2.4,0.7,7.1,1.5,6.4-1.3
	c-1.6-1.7-2.4-3.1-3.2-5.8c0,0,0.4,2.5-0.2-0.8c-0.6-3.3-15.8-19.1-21.2-19.9c-15-2-26.4,12.1-37.2,16.9
	C850.2,533.5,845.3,532.2,836.4,536.1z"/>
<path class="st10" d="M836.4,536c5.3,12.5,17.1,14.9,24,14.5c16.4-1.2,27.2-24.9,34.3-23.5c1.5,0.3,14.3,7.4,17.7,10.9
	c2.5-1.3,8-5.2,8-5.5c-3.3-5.5-15.2-21-21.4-22.1C883.8,507.5,851,530.8,836.4,536z M916.2,539.5c0,1.6-0.4,2.1-0.2,4
	c0.1,1.9,0.7,5.2,0.9,7.4c0.5,0.1,1,0,1.5,0.1c0.4-2.3,0.9-4.5,1.3-6.8c0.7,1.4,1.9,3.1,2.5,4.4s2,2.2,3,2.4
	c2.6,0.5,10.2,1.2,10.7-1.8s-6.8-3.2-8.3-5.2s-3.2-4-4.8-5.9C920.8,538.6,918.5,539.1,916.2,539.5z"/>
<path class="st6" d="M835.7,495.3l0.7,2.1l-7.8,3.6c0,0,12.7,21.1,20.6,18.9c5.7-1.6,15.4-16.3,15.4-16.3c2-1.4,4.6-7.8,3.4-10.8
	c-2.4-6.4-1.7,2.9-4.7,5.4c-0.5,0.5-0.6-2.8-2.1-1.6c-0.8,0.7-0.4,3.6-0.9,4.6c-1.7,3.5-11.7,9.6-12,9.7c-0.1,0-0.7-1.3-1.6-3.2
	c-2-3.9-5.5-10.3-9.5-12C836.8,495.5,836.2,495.4,835.7,495.3z"/>
<path class="st1" d="M837.3,514l8.9-9.1c0,0-11.3-18.8-17.5-10.6C824.4,499.9,830.6,508.3,837.3,514z"/>
<path class="st18" d="M1200.4,360.9c-0.1,11.8,1.6,22.4,5.3,32.9c0.7,2,1.5,4,2.3,5.9l-1,6.4h18.4l-11.9-7.1
	c-0.3-1.7-0.5-3.4-0.7-5.2c-1.3-12.1-0.7-25.4-0.4-31.4c0.1-2.2-0.2-4.3-1-6.4c-3.2-8.3-11.8-31.5-14.6-45.8h-20.2
	C1173.2,333.2,1182.6,343.1,1200.4,360.9z"/>
<path class="st10" d="M1185.7,345.1c3.9,4.9,8.8,9.9,14.7,15.8c-0.1,11.8,0.7,25.1,4.4,35.7l9.2-0.5c-1.3-12.1,0.9-32.2-1-39.8
	c-2.1-8.7-13.2-31.7-16-46h-20.2C1174.4,325.6,1177.8,335.2,1185.7,345.1z"/>
<path class="st19" d="M1185.6,345.1L1185.6,345.1c3.9,4.9,8.8,10,14.7,15.9c-0.1,11.8,0.7,25.1,4.4,35.7l2.7-0.1
	c-3.8-9.9-4.9-22.9-4.5-36.2c-20.1-16.4-6.8-22.3-13-34.1L1185.6,345.1z"/>
<path class="st10" d="M1213.5,399.1c4.4,2.3,12.2,1.6,12.6,7.1H1207c-0.2-2.6-0.1-5,0.7-7.1C1209.5,399.4,1211.5,399.4,1213.5,399.1
	z"/>
<path class="st18" d="M1159.4,398.3c-0.8,1.7-1.5,3.3-2.3,5c5.1,1.2,10.3,2.5,15.4,3.7c-3.1-2.6-6.2-5.1-9.3-7.7
	c1.2-2.4,2.6-5.8,3.9-8c5.2-8.7,11-16.4,16.9-24.6c1.4-1.9,2.3-3.8,2.7-6.3c2.8-16,2.4-32.6,5.3-48.6c-4.6-0.7-9.1-1.4-13.7-2.1
	c-12.7,19.9-10,30.4-4.7,51.8c-6.3,8.6-9.8,18.2-12.4,28.6C1160.7,392.1,1159.8,395.9,1159.4,398.3z"/>
<path class="st10" d="M1186.7,360.3c-0.4,2.5-1.2,4.2-2.8,6.4c-6.7,9.4-11.9,20-17.8,29.9c-2.5-0.6-5-1.2-7.6-1.8
	c2.9-11.6,7.8-23.8,15.1-33.5c-5.3-21.3-8-31.9,4.7-51.8c0,0,0,0,0,0c5.2,0.8,10.4,1.6,15.6,2.4c-0.1,0.4-0.1,0.8-0.2,1.2
	c0,0,0,0,0,0C1190.9,328.8,1189.4,344.7,1186.7,360.3z"/>
<path class="st19" d="M1190.7,313.8c-1.7,2.3-0.1,7-1.9,9.6c-4.7,6.6-11.1,1.7-15.2,4.4c-7,4.5,0.8,25.2,2.3,30.8
	c0,0.2,1.1,3.9,1.8,3.8c-3.2,0.4-2.1-1.9-6.2,5.1c-1.9,3.1-11.4,21.5-11.8,27.3c-0.8,0.8-0.8,0-1.2,0.2c2.9-11.6,7.8-23.8,15.1-33.6
	c-5.3-21.3-8-31.9,4.7-51.8c5.1,1.2,11.4,0.4,16.3,1.5C1195.2,311.3,1191.8,312.3,1190.7,313.8z"/>
<path class="st10" d="M1163.9,397.7c4.3,3,10.3,3.9,10.7,9.8c-6-1.4-11.9-2.9-17.9-4.3c0.5-2.4,1.6-4.5,2.9-6.5
	C1161,397.8,1162.2,398,1163.9,397.7z"/>
<path class="st18" d="M1225.6,263c-0.1,0.2-0.6,1.2-0.7,1.6c-1.2-0.7-2.3-1.7-3.5-2.5c0.3-0.3,1-1.2,1-1.6c0-1.4-0.9-3.3,0.1-4.2
	c1-1,1.5,1.3,1.6,2c1.6-1.8,1.6-2.4,2.9-4.7C1230.6,247.3,1226.7,261.2,1225.6,263z"/>
<path class="st8" d="M1225.7,263.9c-2.4,6-5.1,14-11.2,16.8c-6.9,3.1-12.8-0.3-19.8-0.3c-1.1-5.2-2.3-10.2-3.4-15.4
	c7.6,1.1,13.4,5.2,20,8.8c4-3.8,6.9-8.3,9.9-12.9C1222.7,261.9,1224.2,262.8,1225.7,263.9z"/>
<path class="st12" d="M1224.2,263c-2.4,6.1-7.7,15.7-10.2,17.4c-2,1.4-12.9-0.4-19.3-0.1c0-0.1,0,0,0,0.1c6.9,0,16.9,3.8,20.1,1.9
	c4.1-2.4,8.4-12.4,10.9-18.4C1225.2,263.5,1224.7,263.2,1224.2,263z"/>
<path class="st18" d="M1202.5,285.6l-5.6,24.7h-20.2c0,0-3.3-23.8,1.8-36.2c2.3-5.6,9.9-8,10.4-8.2l0,0l5.6,0.3L1202.5,285.6z"/>
<path class="st2" d="M1202.3,286.6l-4.7,20.9c-0.4,1.7-1.9,2.9-3.6,2.9c-2.9,1.4-7.1,0.9-11.6,0c-3.3,0-6.1-2.6-6.4-6
	c-0.6-7.9-1.1-21.7,2.4-30.3c1.8-4.4,6.8-6.8,9.2-7.8c0.7-0.3,1.5-0.4,2.3-0.4l4.4,0c0.7,0,8.1,18.7,8.1,18.7
	C1202.5,285.2,1202.4,285.9,1202.3,286.6z"/>
<rect x="1180.2" y="308.4" class="st20" width="21.5" height="3.2"/>
<path class="st8" d="M1193.2,322.6c0.3,1,1.1,1.8,2.1,2.1c1.2,0.4,2.6,0.4,3.9,0.2c0.1,0,0.1,0,0.2,0c1-0.2,2.1-0.5,3.1-0.8l0-30.8
	c0,0,0.1-5.7,0-7.6c-0.6-8.3,0.2-18.1-7.7-19.7c-0.4-0.1-0.5,0-0.5,0C1200.4,291.4,1190.4,312,1193.2,322.6z M1170.7,325.6
	c4.2,0.9,9,0.5,12.6,0c3.1-0.4,5.2-3.2,5-6.4c-1.3-17.6,3.8-34.7,0.5-53.4l0,0c-0.5,0.1-8.1,2.6-10.4,8.2c-4.3,10.6-5.9,34-9.2,49.3
	C1169.1,324.4,1169.7,325.4,1170.7,325.6z"/>
<path class="st12" d="M1174,311.2c3.1,0.6,6.2,0.6,9.6,0v-1.5c-2.9,0.4-6.1,0.4-9.6,0V311.2z"/>
<path class="st18" d="M1171.1,312.7c0,0-0.4-1.1-1-2.3l3.9-1.5c0,0,0.3,1.9,0.8,2.3c0.8,0.5,2.7,1.2,3.4,2.4
	c0.7,1.2-2.4,0.2-2.4,0.2s0.5,3.1,2.2,5.1C1179.6,320.9,1173.7,322.8,1171.1,312.7z"/>
<path class="st8" d="M1174.6,309.8l-4.7,2c-2.4-4.4-7.9-16.6-8.3-21.4c-0.5-6.1,19.4-19.9,19.4-19.9l5,9.1
	c-5.2,6.7-14.1,11.5-14.1,11.5L1174.6,309.8z"/>
<path class="st12" d="M1185.7,279.6c-8.7,7.5-14.8,11.1-14.8,10.5l2.4,20.2l1.3-0.6l-2.7-18.7
	C1176.7,288.3,1181.2,284.5,1185.7,279.6z"/>
<path class="st10" d="M1191,261.9c0,0-4.8,0-6-5.6c-1.2-5.6,3.4-7.6,6.5-7.6c4.2,0.1,6.4-3,6.4-3s2.7,3.7,1.1,6.9
	C1197.7,255.4,1191,261.9,1191,261.9z"/>
<path class="st18" d="M1194.8,259.3l-0.1,1.6l-0.3,4.4l0,0.7c-0.1,3.5-5.2,2-5.5,0l0.8-3.4l0.6-2.5l0.2-0.9l0.4-1.5L1194.8,259.3z"
	/>
<path class="st21" d="M1194.7,260.9l-0.3,4.4c-1.3-0.3-3.2-0.9-4.2-2.2c-0.2-0.2-0.3-0.4-0.4-0.6l0.6-2.5l0.2-0.9L1194.7,260.9z"/>
<path class="st18" d="M1196.6,251.9c0.8-0.5,1.9,0.1,1.9,1.1c0.2,3.5,0,9.3-2.8,10.2c-4.1,1.4-6.9-4-6.9-4s-1.7-2.5-0.5-3.3
	c1.2-0.8,2.4,1.2,2.4,1.2C1190.9,253.2,1194.2,253.4,1196.6,251.9z"/>
<polygon class="st22" points="1290.2,248.4 1290.2,261.6 1283.4,261.3 1282.1,261.2 1279.1,261.1 1277.8,261 1251.3,259.9 
	1205.9,258 1205.9,252 1251.3,250.1 1277.9,248.9 1279.2,248.9 1282.3,248.8 1283.5,248.7 "/>
<polygon class="st23" points="1282.1,259.5 1279.1,259.4 1277.8,259.3 1251.3,258.2 1205.9,256.3 1205.9,258 1251.3,259.9 
	1277.8,261 1279.1,261.1 1282.1,261.2 1283.4,261.3 1290.2,261.6 1290.2,259.9 1283.4,259.6 "/>
<path class="st10" d="M1204.6,250.5c-0.7,0-1.3,0.6-1.3,1.3v6.1c0,0.7,0.6,1.3,1.3,1.3c0.7,0,1.3-0.6,1.3-1.3v-6.1
	C1205.9,251.1,1205.3,250.5,1204.6,250.5z"/>
<path class="st2" d="M1291.7,255c0,3.6-1,6.6-2.2,6.6s-2.2-2.9-2.2-6.6c0-3.6,1-6.6,2.2-6.6C1290.7,248.4,1291.7,251.4,1291.7,255z"
	/>
<path class="st10" d="M1289.5,262.2c-1.8,0-2.8-3.6-2.8-7.2c0-3.6,1-7.2,2.8-7.2s2.8,3.6,2.8,7.2
	C1292.3,258.6,1291.3,262.2,1289.5,262.2z M1289.5,249c-0.5,0-1.6,2-1.6,6c0,3.9,1.1,6,1.6,6c0.5,0,1.6-2,1.6-6
	C1291.1,251.1,1290,249,1289.5,249z"/>
<path class="st2" d="M1283.4,261.3l-1.2-0.1c-0.5-4.1-0.5-8.3,0.1-12.4l1.2-0.1C1282.9,252.9,1282.8,257.1,1283.4,261.3z
	 M1279.1,261.1l-1.2-0.1c-0.5-4-0.5-8.1,0.1-12.1l1.2-0.1C1278.6,252.9,1278.6,257,1279.1,261.1z"/>
<polygon class="st24" points="1251.3,249.7 1251.3,260.3 1210.3,258.4 1208.6,258.3 1205.9,258.2 1205.9,251.8 1208.6,251.7 
	1210.3,251.6 "/>
<polygon class="st25" points="1206.3,256.2 1206.3,251.8 1205.9,251.8 1205.9,258.2 1251.3,260.3 1251.3,258.2 "/>
<path class="st2" d="M1252.3,248.7c-0.6,0-1,0.4-1,0.9v11.3c0,0.5,0.5,0.9,1,0.9s1-0.4,1-0.9v-11.3
	C1253.3,249.1,1252.9,248.7,1252.3,248.7z"/>
<polygon class="st2" points="1210.3,251.6 1210.3,258.4 1208.6,258.3 1208.6,251.7 "/>
<path class="st18" d="M155,409.1c0,0,3.9,21.8,9.5,23.3c2.6,0.7,5.8,0.1,9-1c5.3-1.8,10.2-5,10.3-5.9l5.4-16.3
	c-3.1,1.3-20.7,11.4-22.2,12.4c-2.3-3.5-7.4-12.6-7.6-13.3c0,0,1.1-4.9,0.1-6.3c-0.9-1.2-1.2,2.8-1.5,2.3c-0.4-0.5-2.7-6.2-4.3-4.6
	C150.3,403.5,155,409.1,155,409.1z"/>
<path class="st26" d="M170,419.3c0.4,4.3,2.9,10,3.1,12.7c5.3-1.8,11.7-2.4,11.9-3.3l4.2-19.5C186.1,410.6,176.2,415.6,170,419.3z"
	/>
<path class="st27" d="M190.6,502.1c1.1,4.1,1.8,7.9,2.2,11.3c0.9,8.8,0.7,22.5-0.9,31.1l-4.5-0.4c0,0-6.4-23.3-9.4-35.2
	c-0.8-3-1.4-5.7-1.7-7.7c-1.8-11.6,4.9-44.5,5.4-46.6l0-0.1l0,0l18.2-2.5C209.6,474.9,198.1,480.7,190.6,502.1z"/>
<path class="st19" d="M199.3,483.2c-2.6,5.3-5.9,11.1-8.6,19c1,3.8,2.2,7.7,3.5,12.2l-15.8,2.2c-0.8-3-1.8-13.3-2.1-15.4
	c-1.8-11.6,4.9-44.5,5.4-46.6l0-0.1l0,0l18.2-2.5C206,466.4,203.7,474.1,199.3,483.2z"/>
<path class="st28" d="M199.3,483.2c-2.6,5.3-5.9,11.1-8.6,19c1,3.8,2.2,7.7,3.5,12.2l-2.9,0.4c-0.5-4.5-4.5-11.9-5.8-11.7
	c1.2-0.3,12-21.5,12.9-28.9L199.3,483.2z"/>
<path class="st27" d="M209.8,549.8l11.1-12.9c0,0-8.2-12.8-14.8-21.2c-1.6-2-3-3.8-4.3-5.1c-9-9.4-13.8-56.6-13.8-56.6h15
	c11.7,10.8,8.8,25.6,9.1,40.3c0.1,5.1,1.8,10,4.5,14.3c0.6,0.9,1.1,1.7,1.6,2.6c3.4,6.2,5.4,13.6,7.3,25.6l2.3,7.8L209.8,549.8z"/>
<path class="st10" d="M218.9,510.9l-4.3,2l-8.8,4c-1.6-2-2.8-5-4-6.3c-9-9.4-14.9-56.8-14.9-56.8l15.4,0.2l0.6,0
	c11.3,10.4,9,24.6,9.1,38.8c0.1,5.8,1.9,11.4,5.5,16C218,509.5,218.5,510.2,218.9,510.9z"/>
<path class="st19" d="M218.9,510.9l-4.3,2c-1.4-2.2-3.5-6.4-4.6-9.2c-2.9-7.4-1.1-17.5-1.8-31.8c-0.5-10.5-9.4-15.6-9.4-15.6
	l3.6-2.4l0.6,0c11.3,10.4,9,24.6,9.1,38.8c0.1,5.8,1.9,11.4,5.5,16C218,509.5,218.5,510.2,218.9,510.9z"/>
<path class="st8" d="M210.6,423.5c-0.1,9.4-2.4,25.8-3.3,31.7c-0.1,0.9-0.6,1.6-1.3,2c-0.4,0.3-0.8,0.4-1.3,0.5
	c-4.2,0.6-8.4,1-12.4,1c-3.6,0-7.2-0.3-10.6-0.9c-1.3-0.2-2.4-1.3-2.5-2.7c-0.5-4.4,0.9-14.2,0.7-23.7c-0.1-6,1.7-21.4,13-23.8
	l6.6-0.1c7.4,1.9,10.5,7.5,11,11.5C210.6,420.2,210.6,421.8,210.6,423.5z"/>
<path class="st19" d="M186.8,542.8c-7,2.7-14.7,2.4-15.2,8.7l22-0.8c0.3-2.7-0.2-5.3-1.3-7.9L186.8,542.8L186.8,542.8z"/>
<path class="st10" d="M220.9,536.9c-5.6,5-13.9,8.5-12.2,14.5l20.3-6.8c-0.7-2.6-1.6-6.7-3.6-8.8L220.9,536.9z M194.9,401.9
	c2.1,0.7,3,1.7,5.7,0.5c4.2-1.9,7.7-9.1,2.1-12.3c-0.4-1.1-0.8-1.6-2.2-1.9c-1.5-0.3-2.9,0.3-5,0.3c-2,0-4.8-2.1-6.6,0.8
	c-1.8,2.9,2.6,5.2,4.8,6.6C196,397.3,195.2,399.7,194.9,401.9z"/>
<path class="st18" d="M199.5,407.6c-2.4,2.4-4.6,2.8-6.7,0l0.6-4.6l0.2-1.9h5.3l0.1,1.2L199.5,407.6z"/>
<path class="st21" d="M199.1,403.2c-1.3,1.6-4.9,2-5.9,1.4l0.4-3.4l5.3-2.2L199.1,403.2z"/>
<path class="st18" d="M190.9,391.8c-1,2.7-1.9,8.8,0.4,11.1c1.5,1.4,6.8,0.9,7.9-3.1c1.3-0.9,2.2-3.2,1-4.2
	c-0.8-0.7-1.9,1.2-3.4,0.9c-0.6-0.1,1.2-3.9-0.6-4.5C194.6,391.3,192.7,392.7,190.9,391.8z M201.6,431.2c0,0-5.9,7.1-11.2,11
	c-1.3,0.9-2.5,1.7-3.6,2.1c-7.8,3-25.7,0.6-25.7,0.6c-5.7,2.9-12.8,1.2-14.2-1c-2.5-3.8,6.8-0.2,7.7-2.5c0,0-4.3-2.3-3.1-4
	c1.2-1.7,8.6,2.8,8.6,2.8c7.5-3.1,15.1-4.8,22.2-5.3c0.6-0.8,1.1-1.6,1.7-2.4c4.3-5.7,9.2-10.9,16-14.3
	C203.3,422.5,203.2,426.9,201.6,431.2z"/>
<path class="st26" d="M192.1,442.3l-9.3-10.4c4.3-5.7,12.5-18.2,18.2-13.2C208.6,425.4,197.4,438.4,192.1,442.3z"/>
<path class="st2" d="M138.9,397.8c1.5-0.9,3-1.5,4.5-1.9c0.2-0.1,0.5-0.1,0.7-0.2c2.5-0.5,5.1-0.5,7.8-0.2c0.2,0,0.5,0.1,0.7,0.1
	c0.3,0,0.6,0.1,0.9,0.1c0.1,0,0.3,0,0.4,0.1c0.1,0,0.3,0,0.4,0.1c0.1,0,0.2,0,0.4,0.1c0.2-0.4,0.4-0.9,0.5-1.3
	c0.9-2.4,1.6-4.8,2-7.5c0.1-0.5,0.1-0.9,0.2-1.4c-0.1,0-0.2-0.1-0.3-0.1c-0.1,0-0.3-0.1-0.4-0.1c-0.1,0-0.3-0.1-0.4-0.1
	c-0.3-0.1-0.7-0.2-1-0.3c-0.2-0.1-0.5-0.2-0.7-0.2c-2.4-0.9-4.7-2-6.5-3.7c-0.2-0.2-0.4-0.4-0.5-0.5c-1.1-1.2-2-2.6-2.6-4.5
	L138.9,397.8z"/>
<path class="st29" d="M139.5,395.7l5.5-19.6c0.1,0.2,0.2,0.4,0.2,0.6L139.5,395.7z"/>
<path class="st30" d="M138.9,397.8c4.3-2.6,9.2-2.8,14.3-2c0.1,0,0.3,0,0.4,0.1c0,0,0.1,0,0.1,0c0.1,0,0.2,0,0.3,0
	c0.1,0,0.1,0,0.2,0c0.1,0,0.1,0,0.2,0c0.1,0,0.2,0,0.3,0c0,0,0.1,0,0.1,0c0.2-0.4,0.4-0.9,0.5-1.3c-0.1,0.1-0.1,0.3-0.2,0.4
	c0,0,0,0,0,0c-0.1,0-0.2,0-0.3-0.1c-0.1,0-0.1,0-0.2,0c-0.1,0-0.2,0-0.2,0c-0.1,0-0.2,0-0.3-0.1c0,0-0.1,0-0.1,0
	c-0.1,0-0.3-0.1-0.4-0.1c-5-0.9-9.9-0.9-14.2,1.5L138.9,397.8z"/>
<path class="st24" d="M132.2,384.1c-1.7,6.4,0.2,12.5,4.2,13.6c4.1,1.1,8.8-3.2,10.5-9.6s-0.2-12.5-4.2-13.6
	C138.6,373.4,133.9,377.7,132.2,384.1z"/>
<path class="st2" d="M163.7,388.3l-2.3,8.6c1,0.2,3.4,1.1,4.5,1c2.7-0.1,4.8-3,3.9-5.7C169.2,389.5,166,388.9,163.7,388.3z"/>
<path class="st31" d="M161.5,396.3l-0.2,0.6c1,0.2,3.4,1.1,4.5,1c2.7-0.1,4.8-3,3.9-5.7c-0.1-0.4-0.3-0.9-0.6-1.3
	c1.2,2.6-0.8,6-3.6,6.2C164.5,397.3,162.6,396.6,161.5,396.3z"/>
<path class="st32" d="M133.3,384.4c-1.5,5.5,0,10.7,3.3,11.6c1.2,0.3,2.5,0,3.7-0.7c0.9-0.6,1.7-1.4,2.5-2.4
	c0.3-0.4,0.5-0.7,0.8-1.1c0,0,0,0,0-0.1c0.7-1.2,1.3-2.5,1.7-4c0.3-1.2,0.5-2.3,0.6-3.4c0-0.2,0-0.3,0-0.5c0,0,0,0,0,0
	c0-1.2-0.1-2.4-0.4-3.4c-0.6-2.2-1.8-3.8-3.5-4.2C138.6,375.2,134.7,379,133.3,384.4z"/>
<path class="st24" d="M152.5,406.1c0.2,0,0.3,0,0.4-0.2c0.8-1.9,1.9-2.8,2.8-4.4c1-1.9,1-4.7,3.1-6.1l3.8,1l-5.5,10.5
	c-0.1,0.2,0,0.4,0.2,0.5l0,0c0.2,0,0.3,0.2,0.2,0.4l-0.3,1.2c-0.1,0.2-0.2,0.3-0.4,0.2l-4.9-1.3c-0.2,0-0.3-0.2-0.2-0.4l0.3-1.2
	C152.1,406.1,152.3,406,152.5,406.1L152.5,406.1z"/>
<path class="st33" d="M156.1,408.5c0.2,0,0.4-0.1,0.4-0.2l0.3-1.2c0.1-0.2-0.1-0.4-0.2-0.4c-0.2-0.1-0.3-0.3-0.2-0.5l5.2-10l1,0.3
	l-5.5,10.5c-0.1,0.2,0,0.4,0.2,0.5l0,0c0.2,0,0.3,0.2,0.2,0.4l-0.3,1.2c-0.1,0.2-0.2,0.3-0.4,0.2l-4.9-1.3c-0.2,0-0.3-0.2-0.2-0.4
	l0-0.2L156.1,408.5z"/>
<path class="st34" d="M137.7,394.7c0.9-0.6,1.7-1.4,2.5-2.4c0.3-0.4,0.5-0.7,0.8-1.1c0,0,0,0,0-0.1c0.7-1.2,1.3-2.5,1.7-4
	c0.3-1.2,0.5-2.3,0.6-3.4c0-0.2,0-0.3,0-0.5c0,0,0,0,0,0c0-1.2-0.1-2.4-0.4-3.4c-0.5-1.7-1.3-3.1-2.5-3.8c0.5-0.1,1.1,0,1.6,0.1
	c1.7,0.5,2.9,2,3.5,4.2c0.3,1,0.4,2.2,0.4,3.4c0,0,0,0,0,0c0,0.2,0,0.3,0,0.5c-0.1,1.1-0.2,2.3-0.6,3.4c-0.4,1.5-1,2.8-1.7,4
	c0,0,0,0,0,0.1c-0.2,0.4-0.5,0.8-0.8,1.1c-0.8,1-1.6,1.8-2.5,2.4c-1.2,0.8-2.5,1.1-3.7,0.7c-0.4-0.1-0.7-0.3-1-0.4
	C136.2,395.5,137,395.2,137.7,394.7z"/>
<path class="st24" d="M164.9,388c1.1,0.5,1.6,1.8,1.3,3.2l-1.2,4.6c-0.4,1.4-1.5,2.3-2.7,2.1c-1.9-0.2-4.1-0.5-6-0.7
	c-1.3-0.2-2.1-1.3-1.7-2.4c1.1-2.8,1.9-5.6,2.2-8.6c0.1-0.8,1-1.3,1.9-0.9C160.8,386.2,162.8,387.1,164.9,388z"/>
<path class="st2" d="M137.6,388.2l5.9,3.4c0.7-1.2,1.3-2.5,1.7-4c0.3-1.2,0.5-2.3,0.6-3.4c0-0.2,0-0.3,0-0.5c0,0,0,0,0,0l-7,0.4
	L137.6,388.2z"/>
<path class="st35" d="M141.8,389.8c0.8,0.5,1.8,0.1,2.2-0.7c0.4-0.8,0.7-1.6,0.9-2.5c0.3-1,0.4-1.9,0.5-2.9l0.4,0c0,0,0,0,0,0
	c0,0.2,0,0.3,0,0.5c-0.1,1.1-0.2,2.3-0.6,3.4c-0.4,1.5-1,2.8-1.7,4l-5.9-3.4l0.2-0.8L141.8,389.8z"/>
<path class="st24" d="M136.6,385.8c-0.3,1.2,0.1,2.3,0.8,2.5s1.7-0.6,2-1.8c0.3-1.2-0.1-2.3-0.8-2.5
	C137.8,383.9,136.9,384.7,136.6,385.8z"/>
<path class="st33" d="M136.8,385.9c-0.3,1,0,2,0.6,2.2c0.6,0.2,1.4-0.5,1.6-1.6c0.3-1,0-2-0.6-2.2
	C137.8,384.2,137,384.9,136.8,385.9z"/>
<path class="st2" d="M138.2,386.3c0.1-0.3,0-0.6-0.1-0.7c-0.2,0-0.4,0.2-0.4,0.5c-0.1,0.3,0,0.6,0.1,0.7
	C137.9,386.9,138.1,386.7,138.2,386.3z"/>
<path class="st33" d="M156,395.9c1.8,0.2,4.1,0.5,6,0.7c1.2,0.2,2.3-0.8,2.7-2.1l1.2-4.6c0.1-0.2,0.1-0.5,0.1-0.7
	c0.3,0.6,0.3,1.3,0.1,2l-1.2,4.6c-0.4,1.4-1.5,2.3-2.7,2.1c-1.9-0.2-4.1-0.5-6-0.7c-1.2-0.2-2-1.2-1.8-2.2
	C154.8,395.5,155.3,395.8,156,395.9z"/>
<path class="st2" d="M161.1,389.6l2.6,0.7c0.4,0.1,0.8-0.1,0.9-0.5l0,0c0.1-0.4-0.1-0.8-0.5-0.9l-2.6-0.7c-0.4-0.1-0.8,0.1-0.9,0.5
	l0,0C160.5,389.1,160.7,389.5,161.1,389.6z"/>
<path class="st31" d="M160.5,389.2l3.3,0.9c0.2,0.1,0.4-0.1,0.5-0.3l0.2-0.6c0,0,0-0.1,0-0.1c0.2,0.1,0.3,0.3,0.2,0.5l-0.2,0.6
	c-0.1,0.2-0.3,0.3-0.5,0.3l-3.3-0.9C160.6,389.5,160.5,389.3,160.5,389.2C160.5,389.2,160.5,389.2,160.5,389.2z"/>
<path class="st2" d="M163.1,391.8l0.4,0.1c0.3,0.1,0.6-0.1,0.7-0.4l0,0c0.1-0.3-0.1-0.6-0.4-0.7l-0.4-0.1c-0.3-0.1-0.6,0.1-0.7,0.4
	l0,0C162.6,391.5,162.8,391.8,163.1,391.8z"/>
<path class="st31" d="M162.7,391.6l0.9,0.3c0.1,0,0.3,0,0.3-0.2l0.1-0.5c0,0,0-0.1,0-0.1c0.1,0.1,0.1,0.2,0.1,0.3l-0.1,0.5
	c0,0.1-0.2,0.2-0.3,0.2l-0.9-0.3c-0.1,0-0.2-0.1-0.2-0.2C162.6,391.6,162.7,391.6,162.7,391.6z"/>
<path class="st2" d="M161.6,390.9c0.1-0.3-0.1-0.7-0.5-0.8c-0.3-0.1-0.7,0.1-0.8,0.5c-0.1,0.3,0.1,0.7,0.5,0.8
	C161.2,391.4,161.5,391.2,161.6,390.9z"/>
<path class="st31" d="M160.8,391.2c0.3,0.1,0.7-0.1,0.8-0.5c0-0.1,0-0.3,0-0.4c0.1,0.1,0.1,0.3,0.1,0.5c-0.1,0.3-0.4,0.5-0.8,0.5
	c-0.2-0.1-0.4-0.2-0.4-0.4C160.5,391.1,160.6,391.2,160.8,391.2z"/>
<path class="st36" d="M164.9,397.8c0.3,0,0.6,0.1,0.9,0c2.1-2,2.9-5.7,2.5-7.9c-0.3-0.2-0.6-0.4-0.9-0.6
	C168.3,391.7,167.2,395.6,164.9,397.8z"/>
<path class="st37" d="M999.5,160.6c-2.6,0-5,0.5-7.2,1.5c1.3-2.5,2-5.3,2-8.2c0-11.3-10.7-20.5-23.8-20.5s-23.8,9.2-23.8,20.5
	c0,0.3,0,0.5,0,0.8c-1.4-0.5-3-0.8-4.6-0.8c-5.3,0-9.7,2.9-11.4,7c-0.9-0.1-1.9-0.2-2.8-0.2c-8.8,0-16,6.2-16,13.7s7.1,13.7,16,13.7
	c5.2,0,9.8-2.1,12.7-5.4c2.9,3.3,7.6,5.5,12.8,5.5c4.2,0,8.1-1.4,11-3.8c2.9,2.3,6.7,3.8,11,3.8c4.9,0,9.2-1.9,12.2-4.9
	c2.9,2.9,7.2,4.7,12,4.7c8.8,0,16-6.2,16-13.7C1015.5,166.8,1008.3,160.6,999.5,160.6z M469,35.4c-2.6,0-5,0.5-7.2,1.5
	c1.3-2.5,2-5.3,2-8.2c0-11.3-10.7-20.5-23.8-20.5s-23.8,9.2-23.8,20.5c0,0.3,0,0.5,0,0.8c-1.4-0.5-3-0.8-4.6-0.8
	c-5.3,0-9.7,2.9-11.4,7c-0.9-0.1-1.9-0.2-2.8-0.2c-8.8,0-16,6.2-16,13.7s7.1,13.7,16,13.7c5.2,0,9.8-2.1,12.7-5.4
	c2.9,3.3,7.6,5.5,12.8,5.5c4.2,0,8.1-1.4,11-3.8c2.9,2.3,6.7,3.8,11,3.8c4.9,0,9.2-1.9,12.2-4.9c2.9,2.9,7.2,4.7,12,4.7
	c8.8,0,16-6.2,16-13.7C485,41.6,477.8,35.4,469,35.4z M1176,55c-2.6,0-5,0.5-7.2,1.5c1.3-2.5,2-5.3,2-8.2
	c0-11.3-10.7-20.5-23.8-20.5s-23.8,9.2-23.8,20.5c0,0.3,0,0.5,0,0.8c-1.4-0.5-3-0.8-4.6-0.8c-5.3,0-9.7,2.9-11.4,7
	c-0.9-0.1-1.9-0.2-2.8-0.2c-8.8,0-16,6.2-16,13.7s7.1,13.7,16,13.7c5.2,0,9.8-2.1,12.7-5.4c2.9,3.3,7.6,5.5,12.8,5.5
	c4.2,0,8.1-1.4,11-3.8c2.9,2.3,6.7,3.8,11,3.8c4.9,0,9.2-1.9,12.2-4.9c2.9,2.9,7.2,4.7,12,4.7c8.8,0,16-6.2,16-13.7
	C1192,61.2,1184.8,55,1176,55z M178.2,264.3c-2.6,0-5,0.5-7.2,1.5c1.3-2.5,2-5.3,2-8.2c0-11.3-10.7-20.5-23.8-20.5
	s-23.8,9.2-23.8,20.5c0,0.3,0,0.5,0,0.8c-1.4-0.5-3-0.8-4.6-0.8c-5.3,0-9.7,2.9-11.4,7c-0.9-0.1-1.9-0.2-2.8-0.2
	c-8.8,0-16,6.2-16,13.7s7.1,13.7,16,13.7c5.2,0,9.8-2.1,12.7-5.4c2.9,3.3,7.6,5.5,12.8,5.5c4.2,0,8.1-1.4,11-3.8
	c2.9,2.3,6.7,3.8,11,3.8c4.9,0,9.2-1.9,12.2-4.9c2.9,2.9,7.2,4.7,12,4.7c8.8,0,16-6.2,16-13.7C194.2,270.4,187,264.3,178.2,264.3z"
	/>
<path class="st38" d="M1192.6,551.5H79.8c-0.7,0-1.2-0.6-1.2-1.2V550c0-0.7,0.6-1.2,1.2-1.2h1112.8c0.7,0,1.2,0.6,1.2,1.2v0.2
	C1193.9,550.9,1193.3,551.5,1192.6,551.5z M59.4,551.5H12c-0.7,0-1.2-0.6-1.2-1.2V550c0-0.7,0.6-1.2,1.2-1.2h47.4
	c0.7,0,1.2,0.6,1.2,1.2v0.2C60.7,550.9,60.1,551.5,59.4,551.5z M1231.2,551.5H1213c-0.7,0-1.2-0.6-1.2-1.2V550
	c0-0.7,0.6-1.2,1.2-1.2h18.2c0.7,0,1.2,0.6,1.2,1.2v0.2C1232.5,550.9,1231.9,551.5,1231.2,551.5z M1324.3,551.5h-76.8
	c-0.7,0-1.2-0.6-1.2-1.2V550c0-0.7,0.6-1.2,1.2-1.2h76.8c0.7,0,1.2,0.6,1.2,1.2v0.2C1325.6,550.9,1325,551.5,1324.3,551.5z"/>
</svg>
